<svg xmlns="http://www.w3.org/2000/svg" version="1.1" xmlns:xlink="http://www.w3.org/1999/xlink" xmlns:svgjs="http://svgjs.dev/svgjs" width="1000" height="1342" viewBox="0 0 1000 1342"><g transform="matrix(1,0,0,1,0.5339378881986363,0.5433198380566182)"><svg viewBox="0 0 184 247" data-background-color="#ffffff" preserveAspectRatio="xMidYMid meet" height="1342" width="1000" xmlns="http://www.w3.org/2000/svg" xmlns:xlink="http://www.w3.org/1999/xlink"><g id="tight-bounds" transform="matrix(1,0,0,1,-0.09824457142855181,-0.09999999999999432)"><svg viewBox="0 0 184.19648914285713 247.2" height="247.2" width="184.19648914285713"><g><svg></svg></g><g><svg viewBox="0 0 184.19648914285713 247.2" height="247.2" width="184.19648914285713"><g transform="matrix(1,0,0,1,0,47.215199999999996)"><svg viewBox="0 0 184.19648914285713 152.7696" height="152.7696" width="184.19648914285713"><g><svg viewBox="0 0 184.19648914285713 152.7696" height="152.7696" width="184.19648914285713"><g><svg viewBox="0 0 184.19648914285713 152.7696" height="152.7696" width="184.19648914285713"><g><svg viewBox="0 0 184.19648914285713 152.7696" height="152.7696" width="184.19648914285713"><g id="textblocktransform"><svg viewBox="0 0 184.19648914285713 152.7696" height="152.7696" width="184.19648914285713" id="textblock"><g><svg viewBox="0 0 184.19648914285713 152.7696" height="152.7696" width="184.19648914285713"><g transform="matrix(1,0,0,1,0,0)"><svg width="184.19648914285713" viewBox="3 -35 42.20000076293945 35" height="152.7696" data-palette-color="#755bb4"><path d="M17.95 0L6.6 0Q5.1 0 4.05-1.05 3-2.1 3-3.6L3-3.6 3-11.35 7.65-10.3 7.65-6.45Q7.65-5.7 8.18-5.18 8.7-4.65 9.4-4.65L9.4-4.65 15.1-4.65Q15.85-4.65 16.38-5.18 16.9-5.7 16.9-6.45L16.9-6.45 16.9-15.25Q16.9-16 16.38-16.53 15.85-17.05 15.1-17.05L15.1-17.05 6.6-17.05Q5.1-17.05 4.05-18.1 3-19.15 3-20.65L3-20.65 3-31.4Q3-32.9 4.05-33.95 5.1-35 6.6-35L6.6-35 17.95-35Q19.45-35 20.5-33.95 21.55-32.9 21.55-31.4L21.55-31.4 21.55-26 16.9-27.1 16.9-28.55Q16.9-29.3 16.38-29.83 15.85-30.35 15.1-30.35L15.1-30.35 9.4-30.35Q8.7-30.35 8.18-29.83 7.65-29.3 7.65-28.55L7.65-28.55 7.65-23.5Q7.65-22.75 8.18-22.23 8.7-21.7 9.4-21.7L9.4-21.7 17.95-21.7Q19.45-21.7 20.5-20.65 21.55-19.6 21.55-18.1L21.55-18.1 21.55-3.6Q21.55-2.1 20.5-1.05 19.45 0 17.95 0L17.95 0ZM41.6 0L30.25 0Q28.75 0 27.7-1.05 26.65-2.1 26.65-3.6L26.65-3.6 26.65-31.45Q26.65-32.9 27.7-33.95 28.75-35 30.25-35L30.25-35 41.6-35Q43.1-35 44.15-33.95 45.2-32.9 45.2-31.45L45.2-31.45 45.2-23.65 40.55-24.7 40.55-28.6Q40.55-29.35 40.02-29.88 39.5-30.4 38.75-30.4L38.75-30.4 33.1-30.4Q32.35-30.4 31.82-29.88 31.3-29.35 31.3-28.6L31.3-28.6 31.3-6.45Q31.3-5.7 31.82-5.18 32.35-4.65 33.1-4.65L33.1-4.65 38.75-4.65Q39.5-4.65 40.02-5.18 40.55-5.7 40.55-6.45L40.55-6.45 40.55-11.3 35.95-11.3 37-15.95 45.2-15.95 45.2-3.6Q45.2-2.1 44.15-1.05 43.1 0 41.6 0L41.6 0Z" opacity="1" transform="matrix(1,0,0,1,0,0)" fill="#755bb4" class="wordmark-text-0" data-fill-palette-color="primary" id="text-0"></path></svg></g></svg></g></svg></g></svg></g><g></g></svg></g></svg></g></svg></g><path d="M0 41.215L0 1 184.196 1 184.196 41.215 170.42 41.215 170.42 14.777 13.777 14.777 13.777 41.215 0 41.215M0 205.985L0 246.2 184.196 246.2 184.196 205.985 170.42 205.985 170.42 232.423 13.777 232.423 13.777 205.985 0 205.985" fill="#755bb4" stroke="transparent" data-fill-palette-color="primary"></path></svg></g><defs></defs></svg><rect width="184.19648914285713" height="247.2" fill="none" stroke="none" visibility="hidden"></rect></g></svg></g></svg>